<?xml version="1.0" standalone="no"?>
<!DOCTYPE svg PUBLIC "-//W3C//DTD SVG 20010904//EN"
 "http://www.w3.org/TR/2001/REC-SVG-20010904/DTD/svg10.dtd">
<svg version="1.0" xmlns="http://www.w3.org/2000/svg"
 width="452.000000pt" height="452.000000pt" viewBox="0 0 452.000000 452.000000"
 preserveAspectRatio="xMidYMid meet">

<g transform="translate(0.000000,452.000000) scale(0.100000,-0.100000)"
fill="#FFFFFF" stroke="none">
<path d="M1510 3894 c-507 -188 -722 -272 -740 -290 l-25 -25 1 -392 c0 -310
4 -421 18 -532 83 -664 357 -1244 809 -1711 177 -184 355 -329 563 -460 126
-79 134 -77 335 57 277 185 557 458 755 736 240 335 406 720 489 1128 45 222
56 349 62 746 6 390 3 428 -35 462 -28 26 -1444 547 -1483 546 -19 0 -355
-119 -749 -265z m1414 -190 l648 -239 -5 -355 c-6 -374 -14 -473 -62 -700 -85
-402 -284 -818 -552 -1150 -152 -189 -392 -408 -605 -551 l-89 -60 -97 67
c-593 410 -1003 1016 -1147 1694 -48 227 -56 326 -62 700 l-5 355 653 242
c360 133 659 241 664 239 6 -1 302 -110 659 -242z"/>
</g>
</svg>
