<?xml version="1.0" standalone="no"?>
<!DOCTYPE svg PUBLIC "-//W3C//DTD SVG 20010904//EN"
 "http://www.w3.org/TR/2001/REC-SVG-20010904/DTD/svg10.dtd">
<svg version="1.0" xmlns="http://www.w3.org/2000/svg"
 width="2295.000000pt" height="2295.000000pt" viewBox="0 0 2295.000000 2295.000000"
 preserveAspectRatio="xMidYMid meet">

<g transform="translate(0.000000,2295.000000) scale(0.100000,-0.100000)"
fill="#FFFFFF" stroke="none">
<path d="M9185 22439 c-159 -68 -215 -91 -440 -184 -88 -36 -169 -70 -180 -75
-11 -5 -90 -38 -175 -73 -333 -138 -681 -282 -805 -334 -71 -30 -179 -75 -240
-99 -60 -25 -119 -49 -130 -54 -11 -5 -92 -39 -180 -75 -88 -37 -236 -98 -330
-137 -93 -39 -210 -88 -260 -108 -49 -20 -166 -69 -260 -108 -93 -39 -242
-101 -330 -137 -485 -200 -640 -266 -649 -275 -5 -5 -2 -37 7 -77 9 -37 30
-129 47 -203 17 -74 35 -153 40 -175 6 -22 24 -101 40 -175 17 -74 39 -171 49
-215 10 -44 36 -154 56 -245 21 -91 46 -201 57 -245 10 -44 25 -109 33 -145 8
-36 26 -114 40 -175 14 -60 38 -168 55 -240 16 -71 41 -179 55 -240 14 -60 44
-191 66 -290 37 -164 74 -327 130 -570 12 -49 27 -119 35 -154 l14 -64 -273
-274 -273 -273 -60 16 c-32 8 -88 22 -124 29 -36 8 -132 30 -215 49 -82 19
-233 53 -335 76 -102 23 -221 51 -265 61 -132 31 -369 85 -565 129 -102 23
-221 51 -265 61 -44 10 -150 34 -235 54 -85 20 -193 44 -240 55 -47 11 -155
35 -240 55 -85 20 -191 44 -235 54 -279 64 -410 92 -422 89 -15 -3 -72 -134
-298 -683 -36 -88 -70 -169 -75 -180 -5 -11 -39 -92 -75 -180 -95 -231 -119
-287 -170 -410 -50 -118 -69 -163 -170 -410 -36 -88 -70 -169 -75 -180 -5 -11
-39 -92 -75 -180 -36 -88 -70 -169 -75 -180 -5 -11 -25 -58 -43 -105 -19 -47
-62 -152 -97 -235 -35 -82 -98 -235 -142 -340 -43 -104 -92 -221 -108 -260
-16 -38 -59 -142 -95 -230 -36 -88 -70 -169 -75 -180 -13 -28 -108 -259 -136
-328 l-23 -57 22 -16 c12 -9 114 -73 227 -143 113 -70 302 -187 420 -261 118
-73 298 -185 400 -248 102 -62 201 -124 220 -137 19 -13 103 -65 185 -116 297
-183 548 -339 1048 -651 l278 -173 0 -389 c0 -214 -4 -393 -8 -397 -9 -9 -254
-164 -543 -342 -102 -63 -259 -161 -350 -217 -273 -170 -525 -326 -720 -447
-102 -63 -241 -150 -310 -193 -69 -44 -145 -91 -170 -106 -84 -51 -574 -356
-638 -397 -35 -22 -61 -45 -58 -51 2 -6 22 -54 44 -106 22 -52 69 -167 106
-255 82 -196 108 -259 187 -450 34 -82 97 -235 141 -340 43 -104 92 -221 108
-260 16 -38 65 -155 108 -260 44 -104 107 -257 141 -340 34 -82 66 -159 71
-170 5 -11 39 -92 75 -180 36 -88 79 -191 95 -230 31 -75 172 -415 220 -530
16 -38 50 -119 75 -180 26 -60 59 -141 75 -180 174 -421 272 -655 274 -655 3
0 187 41 266 60 41 9 147 34 235 53 88 20 210 48 270 62 61 14 139 32 175 40
36 8 135 31 220 50 85 20 193 45 240 55 47 11 135 31 195 45 61 14 198 46 305
70 107 24 245 56 305 70 61 14 182 42 270 62 88 19 194 44 235 53 41 10 118
28 170 39 52 12 122 28 155 36 33 7 85 19 115 26 l55 12 273 -272 272 -272
-36 -162 c-20 -89 -45 -198 -55 -242 -19 -82 -75 -325 -109 -475 -11 -47 -37
-164 -59 -260 -22 -96 -56 -245 -76 -330 -57 -248 -72 -316 -110 -480 -55
-239 -72 -313 -109 -475 -19 -82 -53 -231 -75 -330 -22 -99 -52 -229 -66 -290
-45 -191 -53 -165 66 -215 57 -24 158 -65 224 -92 66 -27 129 -53 140 -58 11
-5 88 -37 170 -71 83 -34 236 -97 340 -141 105 -43 222 -92 260 -108 39 -16
156 -65 260 -108 105 -44 258 -107 340 -141 167 -69 206 -85 485 -201 330
-137 343 -142 410 -170 36 -15 115 -48 175 -73 61 -25 182 -75 270 -112 226
-93 285 -118 410 -170 61 -26 142 -59 180 -75 39 -16 135 -56 215 -90 79 -33
151 -60 160 -60 8 0 26 19 39 43 13 23 33 58 46 77 13 19 76 121 140 225 65
105 169 272 231 373 63 100 166 266 231 370 64 103 178 286 253 407 283 455
589 947 699 1125 25 41 60 97 78 125 l33 49 391 1 391 0 50 -80 c27 -44 87
-141 134 -215 46 -74 138 -223 205 -330 66 -107 161 -260 211 -340 50 -80 137
-219 193 -310 56 -91 143 -230 193 -310 50 -80 132 -212 183 -295 51 -82 107
-172 124 -200 18 -27 97 -153 175 -280 228 -370 271 -435 284 -435 6 0 50 16
96 36 94 39 262 109 385 159 44 18 141 58 215 89 154 65 256 107 350 146 36
15 99 41 140 58 185 77 471 195 535 222 39 16 120 50 180 75 61 26 142 59 180
75 159 66 381 158 560 232 293 122 319 133 490 204 88 37 225 93 305 126 80
33 181 75 225 93 44 18 123 51 175 72 328 136 302 123 297 157 -2 17 -14 72
-26 121 -11 50 -37 160 -56 245 -20 85 -45 196 -57 245 -11 50 -28 126 -38
170 -10 44 -27 121 -39 170 -11 50 -36 160 -56 245 -20 85 -44 191 -54 235
-10 44 -38 163 -61 265 -23 102 -57 253 -76 335 -159 693 -175 763 -214 935
-16 74 -35 153 -41 176 l-11 41 272 271 c150 150 278 272 284 272 6 0 61 -11
121 -25 210 -49 349 -81 520 -120 111 -25 239 -55 350 -80 61 -14 198 -46 305
-70 107 -24 245 -56 305 -70 61 -14 151 -34 200 -46 157 -35 208 -47 305 -69
52 -13 131 -30 175 -40 44 -10 121 -27 170 -39 50 -11 160 -36 245 -56 85 -20
193 -44 240 -55 211 -49 264 -60 271 -53 3 5 18 37 32 73 15 36 47 115 72 175
26 61 49 117 52 125 6 14 74 178 235 565 39 94 88 211 108 260 47 113 126 304
230 555 44 107 94 227 110 265 16 39 49 120 75 180 25 61 59 142 75 180 16 39
65 158 110 265 116 279 132 318 201 485 34 83 97 236 141 340 43 105 92 222
108 260 16 39 61 146 99 239 39 92 69 171 66 175 -2 4 -32 25 -67 46 -71 44
-387 239 -778 483 -146 91 -312 194 -370 230 -58 35 -121 75 -140 87 -19 13
-138 87 -265 165 -280 173 -804 499 -1015 631 l-155 97 -1 395 -2 395 142 88
c77 48 242 150 366 227 124 77 308 192 410 255 102 63 248 154 325 202 77 48
223 139 325 202 270 168 781 485 885 551 50 30 143 88 207 128 65 39 122 77
127 83 6 8 -7 52 -40 131 -28 66 -82 197 -121 290 -39 94 -88 211 -108 260
-58 142 -162 392 -340 820 -50 121 -190 457 -222 535 -17 41 -41 100 -54 130
-13 30 -41 98 -62 150 -21 52 -71 172 -110 265 -39 94 -107 258 -152 365 -44
107 -94 227 -110 265 -16 39 -59 142 -95 230 -36 88 -70 169 -75 180 -5 11
-39 92 -75 180 -36 88 -82 197 -100 242 -19 45 -35 86 -35 92 0 19 -26 15
-265 -39 -49 -12 -128 -30 -175 -40 -111 -25 -373 -86 -475 -109 -44 -10 -154
-36 -245 -56 -91 -21 -199 -46 -240 -55 -41 -10 -158 -37 -260 -60 -198 -45
-434 -99 -565 -129 -44 -10 -163 -38 -265 -61 -102 -23 -252 -57 -335 -76 -82
-19 -179 -41 -215 -49 -36 -7 -91 -21 -123 -29 l-58 -15 -274 274 -274 274 20
88 c72 321 97 432 119 523 9 41 34 149 55 240 20 91 45 199 55 240 9 41 34
147 53 235 20 88 48 210 62 270 14 61 32 139 40 175 8 36 23 101 33 145 11 44
36 154 57 245 20 91 46 201 56 245 10 44 32 141 49 215 17 74 37 162 44 195
73 309 87 377 83 388 -5 13 -101 55 -652 282 -88 36 -169 70 -180 75 -11 5
-87 37 -170 71 -129 53 -296 123 -600 249 -38 16 -142 59 -230 95 -88 36 -169
70 -180 75 -11 5 -65 27 -120 50 -55 23 -125 51 -155 64 -30 13 -89 37 -130
54 -66 27 -306 127 -540 224 -41 17 -104 43 -140 58 -36 15 -114 48 -175 73
-60 25 -182 75 -270 112 -201 83 -264 109 -445 185 -79 33 -147 60 -150 60 -7
0 -16 -14 -290 -455 -106 -170 -244 -392 -307 -492 -62 -101 -164 -265 -226
-365 -243 -391 -496 -797 -549 -883 -31 -49 -93 -148 -137 -220 -44 -71 -116
-186 -158 -255 l-78 -125 -395 0 -394 0 -53 85 c-29 47 -108 173 -174 280 -66
107 -161 260 -211 340 -50 80 -137 219 -193 310 -56 91 -143 230 -193 310 -50
80 -114 183 -143 230 -29 47 -148 238 -264 425 -250 402 -371 596 -449 723
-32 50 -63 92 -69 91 -7 0 -75 -28 -152 -60z m-267 -1547 c29 -48 95 -154 147
-237 52 -82 127 -203 167 -268 40 -65 87 -139 103 -166 17 -26 67 -108 113
-182 145 -233 201 -323 231 -369 16 -25 93 -148 171 -275 321 -517 525 -843
563 -903 39 -61 42 -63 76 -58 20 3 113 10 206 16 94 6 199 16 235 21 36 6
227 13 425 16 364 5 429 3 905 -36 220 -18 236 -19 248 -3 7 9 93 144 190 300
97 155 227 362 289 460 61 97 144 229 183 292 39 63 125 201 191 305 66 105
210 334 320 510 357 570 404 644 416 656 12 12 36 4 218 -71 55 -23 136 -57
180 -75 44 -17 145 -60 225 -93 204 -85 549 -228 650 -268 47 -19 94 -39 105
-44 11 -5 92 -39 180 -75 88 -36 192 -79 230 -95 39 -16 142 -59 230 -95 266
-109 238 -93 231 -139 -6 -38 -15 -78 -66 -291 -16 -70 -31 -133 -70 -300 -5
-22 -18 -78 -29 -125 -11 -47 -56 -242 -101 -435 -45 -192 -90 -388 -101 -435
-21 -92 -27 -118 -59 -252 -11 -49 -29 -125 -40 -170 -10 -46 -40 -173 -65
-283 -25 -110 -54 -236 -65 -280 -10 -44 -26 -114 -35 -155 -9 -41 -21 -88
-26 -104 -17 -56 -11 -72 49 -122 468 -395 941 -862 1277 -1264 39 -46 79 -95
91 -109 l21 -25 94 23 c52 13 121 29 154 36 33 8 98 23 145 34 47 11 175 41
285 66 110 25 238 55 285 66 47 11 103 24 125 29 22 5 78 18 125 29 47 11 135
32 195 46 61 14 128 30 150 35 158 37 234 55 410 95 110 25 238 55 285 66 47
11 112 26 145 34 33 7 98 23 145 34 47 11 119 27 160 37 41 9 109 25 149 35
41 11 79 15 83 11 4 -4 38 -80 74 -167 36 -88 86 -209 111 -270 25 -60 60
-146 78 -190 48 -117 189 -457 265 -640 22 -55 65 -158 95 -230 29 -71 72
-175 95 -230 40 -96 114 -277 179 -435 17 -41 31 -78 31 -81 0 -7 -46 -36
-485 -309 -358 -222 -607 -377 -1035 -645 -168 -104 -469 -291 -668 -415
l-363 -225 6 -95 c3 -52 10 -131 15 -175 47 -419 47 -1091 0 -1510 -5 -44 -12
-123 -16 -176 l-6 -96 108 -68 c60 -37 129 -80 154 -96 25 -16 141 -88 257
-161 362 -226 931 -583 1088 -682 83 -52 202 -127 265 -166 63 -39 170 -106
238 -148 67 -42 194 -122 282 -177 88 -55 160 -104 160 -108 0 -4 -18 -52 -41
-105 -56 -136 -85 -204 -193 -467 -142 -345 -293 -711 -326 -790 -16 -38 -59
-142 -95 -230 -73 -176 -93 -226 -190 -457 -36 -86 -65 -161 -65 -166 0 -5 -7
-15 -14 -22 -15 -11 -69 -1 -456 91 -47 11 -123 29 -170 40 -114 26 -149 35
-255 59 -49 12 -117 28 -150 35 -33 8 -98 23 -145 34 -47 11 -175 41 -285 66
-110 25 -238 55 -285 66 -47 11 -112 26 -145 34 -33 8 -89 21 -125 29 -36 8
-112 26 -170 40 -58 13 -175 40 -260 60 -85 20 -231 54 -324 76 l-170 39 -35
-42 c-443 -520 -869 -949 -1306 -1317 -55 -46 -102 -85 -104 -87 -6 -4 11 -88
45 -233 35 -147 63 -265 79 -335 7 -33 23 -100 35 -150 11 -49 25 -108 30
-130 5 -22 18 -78 29 -125 11 -47 50 -213 86 -370 36 -157 75 -323 86 -370 11
-47 24 -103 29 -125 5 -22 19 -80 30 -130 12 -49 28 -117 35 -150 8 -33 23
-98 34 -145 11 -47 41 -175 66 -285 25 -110 55 -236 65 -279 11 -44 20 -88 20
-98 0 -21 0 -21 -225 -113 -88 -36 -191 -79 -230 -95 -38 -16 -142 -59 -230
-95 -170 -70 -222 -92 -435 -181 -74 -31 -207 -85 -295 -121 -88 -36 -185 -76
-215 -88 -30 -13 -111 -46 -180 -74 -69 -28 -134 -56 -145 -61 -11 -5 -76 -32
-145 -60 -69 -28 -130 -54 -136 -56 -6 -3 -100 138 -209 313 -196 315 -451
723 -913 1466 -132 210 -292 469 -358 574 l-119 193 -40 0 c-41 0 -293 -20
-520 -41 -166 -15 -781 -15 -945 0 -199 18 -482 40 -520 40 -34 0 -37 -2 -138
-167 -102 -164 -161 -259 -534 -852 -102 -162 -220 -351 -263 -420 -43 -69
-92 -147 -110 -175 -50 -79 -218 -347 -405 -645 -94 -151 -175 -278 -179 -283
-4 -4 -45 9 -92 29 -85 36 -103 43 -384 159 -88 36 -191 79 -230 95 -38 16
-115 47 -170 70 -55 22 -120 49 -145 60 -25 11 -90 38 -145 60 -55 23 -131 54
-170 70 -38 16 -142 59 -230 95 -88 36 -191 79 -230 95 -38 16 -142 59 -230
95 -247 102 -228 91 -220 133 3 21 15 73 25 117 11 44 40 170 65 280 25 110
55 238 66 285 11 47 26 112 34 145 7 33 23 101 35 150 42 178 52 221 65 280 8
33 23 98 34 145 11 47 50 213 86 370 67 290 77 336 115 495 11 50 25 108 30
130 5 22 18 78 29 125 63 270 81 349 81 366 0 11 -31 44 -72 79 -442 370 -936
861 -1278 1270 -46 55 -86 103 -89 107 -4 4 -83 -10 -176 -32 -192 -45 -430
-100 -585 -137 -92 -21 -140 -32 -315 -73 -22 -5 -78 -18 -125 -29 -47 -11
-213 -50 -370 -86 -304 -70 -354 -82 -495 -115 -49 -11 -117 -27 -150 -35 -33
-8 -98 -23 -145 -34 -97 -22 -202 -47 -413 -96 -82 -19 -154 -35 -160 -35 -7
0 -25 33 -41 73 -29 74 -35 89 -176 427 -125 301 -135 324 -205 495 -36 88
-79 192 -95 230 -16 39 -47 115 -70 170 -22 55 -49 120 -60 145 -11 25 -38 90
-60 145 -45 109 -67 162 -165 397 -36 86 -65 161 -65 165 0 4 67 49 148 99
373 231 690 428 722 449 34 22 527 329 915 570 105 64 213 132 240 149 28 18
157 99 289 181 l238 148 -5 71 c-3 39 -17 215 -31 391 -35 426 -35 701 0 1120
13 171 27 346 30 390 l6 80 -161 100 c-295 184 -606 378 -1246 780 -225 141
-576 361 -778 487 -329 206 -367 233 -361 252 6 19 24 65 114 281 16 39 59
142 95 230 36 88 70 169 75 180 5 11 29 70 54 130 41 102 72 176 193 470 25
61 56 135 68 165 12 30 46 111 75 180 52 123 108 258 196 475 25 61 49 113 53
117 4 5 31 2 61 -6 30 -7 98 -23 150 -35 52 -12 133 -31 180 -42 47 -11 112
-27 145 -34 33 -8 98 -23 145 -34 47 -11 175 -41 285 -66 110 -25 238 -55 285
-66 47 -11 103 -24 125 -29 22 -5 78 -18 125 -29 47 -11 135 -32 195 -46 61
-14 128 -30 150 -35 22 -5 168 -39 325 -75 157 -36 321 -74 365 -85 44 -10
114 -26 155 -36 41 -9 108 -25 149 -35 41 -11 80 -19 87 -19 6 0 51 46 99 103
408 476 882 950 1279 1277 l78 64 -6 41 c-6 39 -11 61 -55 245 -11 47 -41 175
-66 285 -25 110 -55 238 -66 285 -11 47 -24 103 -29 125 -71 305 -93 400 -128
550 -17 72 -52 220 -77 330 -25 110 -55 238 -66 285 -11 47 -24 103 -29 125
-5 22 -18 78 -29 125 -70 296 -121 522 -121 534 0 14 1 15 235 111 88 36 192
79 230 95 39 16 142 59 230 95 88 36 192 79 230 95 39 16 113 47 165 68 52 21
158 65 235 97 77 32 181 75 230 95 50 20 167 69 260 108 341 142 410 170 425
171 9 0 38 -37 68 -87z"/>
<path d="M11145 15534 c-333 -27 -627 -85 -929 -185 -953 -316 -1765 -973
-2258 -1827 -280 -486 -439 -949 -520 -1517 -20 -144 -22 -198 -22 -535 0
-398 8 -489 66 -790 122 -633 414 -1254 839 -1780 506 -628 1242 -1116 2031
-1345 708 -206 1548 -206 2256 0 852 247 1608 770 2133 1475 381 511 642 1104
748 1702 81 453 83 1036 5 1458 -47 259 -158 646 -224 785 -5 11 -20 47 -34
81 -61 149 -185 389 -282 547 -177 287 -346 500 -593 748 -384 384 -769 645
-1296 879 -259 115 -632 221 -950 270 -304 47 -653 59 -970 34z m620 -1214
c916 -87 1732 -613 2195 -1416 268 -463 393 -964 376 -1509 -7 -262 -24 -392
-82 -631 -61 -254 -200 -581 -340 -804 -407 -644 -1033 -1094 -1765 -1271
-397 -95 -923 -97 -1324 -3 -654 153 -1240 537 -1636 1069 -299 402 -475 834
-546 1341 -25 181 -25 577 0 759 82 585 319 1099 710 1536 465 520 1139 862
1829 928 124 12 458 12 583 1z"/>
</g>
</svg>
