<?xml version="1.0" standalone="no"?>
<!DOCTYPE svg PUBLIC "-//W3C//DTD SVG 20010904//EN"
 "http://www.w3.org/TR/2001/REC-SVG-20010904/DTD/svg10.dtd">
<svg version="1.0" xmlns="http://www.w3.org/2000/svg"
 width="920.000000pt" height="512.000000pt" viewBox="0 0 920.000000 512.000000"
 preserveAspectRatio="xMidYMid meet">

<g transform="translate(0.000000,512.000000) scale(0.100000,-0.100000)"
fill="#000000" stroke="none">
<path d="M2797 4598 c-30 -51 -98 -167 -151 -259 l-96 -165 0 -1572 0 -1572
515 0 515 0 0 -300 0 -300 298 0 297 0 333 300 334 300 415 0 415 0 241 223
c133 122 371 341 530 486 l287 264 0 1343 0 1344 -1939 0 -1940 0 -54 -92z
m3423 -1336 l0 -1007 -277 -277 -278 -277 -489 0 -489 1 -251 -251 c-138 -138
-254 -251 -259 -251 -4 0 -7 113 -7 250 l0 250 -42 0 c-24 0 -234 1 -468 3
l-425 2 -3 1283 -2 1282 1495 0 1495 0 0 -1008z"/>
<path d="M4224 3656 c-17 -8 -34 -21 -38 -31 -3 -9 -6 -281 -6 -605 l0 -589
26 -20 c25 -20 40 -21 226 -21 198 0 199 0 223 25 l25 24 2 563 c0 310 0 572
0 583 -3 35 -24 64 -55 75 -45 15 -365 12 -403 -4z"/>
<path d="M5090 3663 c-8 -3 -25 -15 -37 -26 l-23 -20 0 -589 0 -589 25 -24
c24 -25 25 -25 224 -25 197 0 200 0 228 24 l28 24 0 591 0 590 -23 23 c-22 22
-29 23 -215 25 -105 1 -199 0 -207 -4z"/>
</g>
</svg>
