<?xml version="1.0" standalone="no"?>
<!DOCTYPE svg PUBLIC "-//W3C//DTD SVG 20010904//EN"
 "http://www.w3.org/TR/2001/REC-SVG-20010904/DTD/svg10.dtd">
<svg version="1.0" xmlns="http://www.w3.org/2000/svg"
 width="512.000000pt" height="512.000000pt" viewBox="0 0 512.000000 512.000000"
 preserveAspectRatio="xMidYMid meet">

<g transform="translate(0.000000,512.000000) scale(0.100000,-0.100000)"
fill="#FFFFFF" stroke="none">
<path d="M1818 2804 l-3 -1186 -90 -29 c-82 -26 -245 -109 -287 -147 -16 -13
-18 -34 -18 -154 l0 -138 500 0 500 0 0 138 c0 120 -2 141 -17 154 -43 38
-206 121 -288 147 l-90 29 -3 616 -2 616 195 0 195 0 0 -95 0 -95 640 0 c356
0 640 4 640 9 0 4 -43 91 -97 192 l-96 183 22 41 c40 71 171 325 171 330 0 3
-198 5 -440 5 l-440 0 0 95 0 95 -395 0 -395 0 0 190 0 190 -100 0 -100 0 -2
-1186z"/>
</g>
</svg>
